<svg width="26" height="26" viewBox="0 0 26 26" fill="none" xmlns="http://www.w3.org/2000/svg">
<path d="M13.5556 2C11.2701 2 9.03594 2.67772 7.13564 3.94746C5.23534 5.2172 3.75423 7.02193 2.87962 9.13344C2.00501 11.2449 1.77617 13.5684 2.22204 15.8099C2.66792 18.0515 3.76848 20.1105 5.38455 21.7266C7.00062 23.3426 9.05963 24.4432 11.3012 24.8891C13.5427 25.3349 15.8662 25.1061 17.9777 24.2315C20.0892 23.3569 21.8939 21.8758 23.1637 19.9755C24.4334 18.0752 25.1111 15.841 25.1111 13.5556C25.1111 10.4908 23.8937 7.55163 21.7266 5.38454C19.5595 3.21746 16.6203 2 13.5556 2ZM13.5989 14.7689C13.4769 14.7698 13.3559 14.7466 13.2429 14.7006C13.1299 14.6546 13.0271 14.5866 12.9405 14.5007C12.8539 14.4148 12.7852 14.3125 12.7383 14.1999C12.6914 14.0873 12.6672 13.9665 12.6672 13.8444V6.80278C12.6672 6.55568 12.7654 6.31871 12.9401 6.14399C13.1148 5.96927 13.3518 5.87111 13.5989 5.87111C13.846 5.87111 14.083 5.96927 14.2577 6.14399C14.4324 6.31871 14.5306 6.55568 14.5306 6.80278V13.8444C14.5306 13.9665 14.5064 14.0873 14.4595 14.1999C14.4126 14.3125 14.3439 14.4148 14.2572 14.5007C14.1706 14.5866 14.0679 14.6546 13.9549 14.7006C13.8419 14.7466 13.7209 14.7698 13.5989 14.7689ZM13.5556 20.6261C12.0344 20.6441 10.5473 20.1755 9.31133 19.2886C8.07532 18.4018 7.15509 17.1432 6.68493 15.6964C6.21477 14.2496 6.21929 12.6904 6.69783 11.2464C7.17637 9.8024 8.10388 8.54911 9.34501 7.66944C9.56118 7.51536 9.82928 7.45247 10.0914 7.49436C10.3536 7.53625 10.5887 7.67955 10.7461 7.89333C10.823 7.9989 10.8781 8.11864 10.9085 8.24564C10.9388 8.37264 10.9437 8.50438 10.9229 8.63329C10.9021 8.76219 10.856 8.8857 10.7872 8.99669C10.7184 9.10769 10.6284 9.20397 10.5222 9.28C9.80834 9.80428 9.24064 10.5027 8.87325 11.3086C8.50586 12.1146 8.35103 13.0012 8.42352 13.8839C8.49601 14.7667 8.7934 15.6161 9.28734 16.3513C9.78128 17.0866 10.4553 17.683 11.2452 18.0838C12.035 18.4846 12.9144 18.6764 13.7994 18.6409C14.6844 18.6054 15.5456 18.3439 16.3008 17.8811C17.056 17.4184 17.6802 16.7699 18.1137 15.9975C18.5472 15.2252 18.7756 14.3546 18.7772 13.4689C18.7748 12.6528 18.5768 11.8492 18.1998 11.1254C17.8228 10.4016 17.2779 9.77868 16.6106 9.30889C16.4051 9.14673 16.2722 8.90976 16.2411 8.64986C16.21 8.38997 16.2831 8.12832 16.4444 7.92222C16.604 7.71071 16.8402 7.57027 17.1022 7.5311C17.3642 7.49193 17.6311 7.55717 17.8456 7.71278C19.0737 8.60252 19.9865 9.86043 20.4513 11.304C20.9162 12.7476 20.9091 14.3017 20.431 15.741C19.9528 17.1802 19.0286 18.4297 17.7923 19.3081C16.556 20.1865 15.072 20.6482 13.5556 20.6261Z" fill="#2F3034"/>
</svg>
